<svg version="1.1" id="svg_page-header_logo--mid" xmlns="http://www.w3.org/2000/svg" xmlns:xlink="http://www.w3.org/1999/xlink" x="0px" y="0px"
	 viewBox="0 0 511.1 90.9" style="enable-background:new 0 0 511.1 90.9;" xml:space="preserve">
<path fill="#fff" class="st0" d="M37.4,3.8v50.6h32.8v3H34.4V3.8H37.4z"/>
<path fill="#fff" class="st0" d="M102.2,46.5l-4.3,11.6l-2.7-1.3l20.7-55.1l20.7,55.1l-2.7,1.3l-4.5-11.6H102.2z M103.3,43.5h24.9L115.9,10
	L103.3,43.5z"/>
<path fill="#fff" class="st0" d="M213.7,36.9v20.5h-3V3.7c1.5-0.2,4.1-0.3,5.3-0.3c15.8,0,24.3,7.5,24.3,16.9c0,9.5-8.5,14.1-13.7,15.4
	l15.8,20.8l-2.5,1.6l-16.6-21.7c-2.6,0.4-4.5,0.6-7.3,0.6C215.2,37,214.5,37,213.7,36.9z M213.7,33.9c0.7,0.1,1.4,0.1,2.3,0.1
	c10.5,0,21.3-4.1,21.3-13.7c0-7.5-6.8-13.9-21.3-13.9c-0.7,0-1.6,0-2.3,0.1V33.9z"/>
<path fill="#fff" class="st0" d="M268.5,57.4V3.8h39.6v3h-36.6V25h30v3h-30v26.4h36.6v3H268.5z"/>
<path fill="#fff" class="st0" d="M338.6,3.8v53.6h-3V3.8H338.6z"/>
<path fill="#fff" class="st0" d="M367.2,57.4V1.5l38.7,49.6V3.8h3v55.9l-38.7-49.6v47.3H367.2z"/>
<path fill="#fff" class="st0" d="M437.1,57.4V3.8h39.6v3h-36.6V25h30v3h-30v26.4h36.6v3H437.1z"/>
<path fill="#fff" stroke="#fff" stroke-miterlimit="10" class="st1" d="M1,75.4v0.8c0.7-0.6,1.6-1,2.8-1c1.5,0,2.6,0.8,3.1,2.2c0.5-1.4,1.5-2.2,3-2.2c1.9,0,3.3,1.4,3.3,3.7v6.1h-0.5
	v-6.1c0-0.7-0.4-3.2-2.8-3.2c-2,0-2.8,1.8-2.8,3.1v6.2H6.6v-6.2c0-1.3-0.8-3.1-2.8-3.1c-1.1,0-2.1,0.5-2.8,1.1v8.2H0.5v-9.7H1z"/>
<path fill="#fff" stroke="#fff" stroke-miterlimit="10" class="st1" d="M28.8,76.6c0.9-0.8,2-1.3,3.3-1.3c1.4,0,3.2,0.9,3.2,3.7v6.1h-0.5v-0.9c-0.9,0.8-2,1.1-3.2,1.1
	c-2,0-3.8-1.4-3.8-3.5c0-2.2,1.8-3.5,3.8-3.5c1.3,0,2.4,0.5,3.2,1.2v-0.5c0-2.4-1.5-3.2-2.7-3.2c-1.2,0-2.2,0.4-2.9,1.2L28.8,76.6z
	 M34.8,83.4v-3.1c-0.8-1-1.9-1.5-3.2-1.5c-1.7,0-3.3,1.1-3.3,3c0,1.8,1.5,3,3.3,3C32.9,84.7,34.1,84.3,34.8,83.4z"/>
<path fill="#fff" stroke="#fff" stroke-miterlimit="10" class="st1" d="M50.1,72.5H51v0.9h-0.9V72.5z M50.9,75.4v9.7h-0.5v-9.7H50.9z"/>
<path fill="#fff" stroke="#fff" stroke-miterlimit="10" class="st1" d="M66.4,84.3c0.5,0.2,1.3,0.3,1.8,0.3c2.1,0,3.5-1,3.5-2.3c0-0.9-1-1.6-2.8-1.9c-2.1-0.3-3.2-1.2-3.2-2.4
	c0-1.5,1.6-2.8,4.1-2.8c0.6,0,1.5,0.2,2,0.4l-0.2,0.5c-0.5-0.2-1.3-0.3-1.8-0.3c-2.1,0-3.5,1-3.5,2.3c0,0.9,1,1.6,2.8,1.9
	c2.1,0.3,3.2,1.2,3.2,2.4c0,1.5-1.6,2.8-4.1,2.8c-0.6,0-1.5-0.2-2-0.4L66.4,84.3z"/>
<path fill="#fff" stroke="#fff" stroke-miterlimit="10" class="st1" d="M91.6,75.3c2.8,0,5,2.3,5,5s-2.3,5-5,5c-2.8,0-5-2.3-5-5S88.8,75.3,91.6,75.3z M91.6,84.7c2.5,0,4.5-2,4.5-4.5
	s-2-4.5-4.5-4.5c-2.5,0-4.5,2-4.5,4.5S89.1,84.7,91.6,84.7z"/>
<path fill="#fff" stroke="#fff" stroke-miterlimit="10" class="st1" d="M111.8,75.4v0.8c0.8-0.6,2-1,3-1c1.6,0,3.1,0.8,3.7,2.4c0.1,0.3,0.2,0.6,0.2,1.3v6.2h-0.5v-6.2
	c0-2.1-1.8-3.1-3.4-3.1c-1.1,0-2.3,0.4-3,1.1v8.2h-0.5v-9.7H111.8z"/>
<path fill="#fff" stroke="#fff" stroke-miterlimit="10" class="st1" d="M159.3,69v16.1c-0.5,0-1,0.1-1.4,0.1c-4.1,0-6.1-2.4-6.1-4.9c0-2.5,2-4.9,6.1-4.9c0.3,0,0.5,0,0.8,0V69H159.3z
	 M158.8,84.6v-8.7c-0.3,0-0.6,0-0.8,0c-3.7,0-5.6,2.2-5.6,4.4c0,2.2,1.9,4.4,5.6,4.4C158.2,84.6,158.5,84.6,158.8,84.6z"/>
<path fill="#fff" stroke="#fff" stroke-miterlimit="10" class="st1" d="M174.7,75.4v6.2c0,1.9,1.5,3.1,3.2,3.1s3.2-1.3,3.2-3.1v-6.2h0.5v6.2c0,2.2-1.7,3.7-3.8,3.7s-3.8-1.5-3.8-3.7
	v-6.2H174.7z"/>
<path fill="#fff" stroke="#fff" stroke-miterlimit="10" class="st1" d="M215.6,75.4v0.8c0.7-0.6,1.6-1,2.8-1c1.5,0,2.6,0.8,3.1,2.2c0.5-1.4,1.5-2.2,3-2.2c1.9,0,3.3,1.4,3.3,3.7v6.1
	h-0.5v-6.1c0-0.7-0.4-3.2-2.8-3.2c-2,0-2.8,1.8-2.8,3.1v6.2h-0.5v-6.2c0-1.3-0.8-3.1-2.8-3.1c-1.1,0-2.1,0.5-2.8,1.1v8.2H215v-9.7
	H215.6z"/>
<path fill="#fff" stroke="#fff" stroke-miterlimit="10" class="st1" d="M247.3,75.3c2.8,0,5,2.3,5,5s-2.3,5-5,5c-2.8,0-5-2.3-5-5S244.6,75.3,247.3,75.3z M247.3,84.7
	c2.5,0,4.5-2,4.5-4.5s-2-4.5-4.5-4.5c-2.5,0-4.5,2-4.5,4.5S244.8,84.7,247.3,84.7z"/>
<path fill="#fff" stroke="#fff" stroke-miterlimit="10" class="st1" d="M267.5,75.4v0.8c0.8-0.6,2-1,3-1c1.6,0,3.1,0.8,3.7,2.4c0.1,0.3,0.2,0.6,0.2,1.3v6.2H274v-6.2
	c0-2.1-1.8-3.1-3.4-3.1c-1.1,0-2.3,0.4-3,1.1v8.2H267v-9.7H267.5z"/>
<path fill="#fff" stroke="#fff" stroke-miterlimit="10" class="st1" d="M296.6,69v16.1c-0.5,0-1,0.1-1.4,0.1c-4.1,0-6.1-2.4-6.1-4.9c0-2.5,2-4.9,6.1-4.9c0.3,0,0.5,0,0.8,0V69H296.6z
	 M296.1,84.6v-8.7c-0.3,0-0.6,0-0.8,0c-3.7,0-5.6,2.2-5.6,4.4c0,2.2,1.9,4.4,5.6,4.4C295.5,84.6,295.8,84.6,296.1,84.6z"/>
<path fill="#fff" stroke="#fff" stroke-miterlimit="10" class="st1" d="M318.5,85.1c-0.4,0-0.8,0.1-1.2,0.1c-4,0-6.1-2.4-6.1-4.9c0-3.7,2.6-5,4.3-5c2.6,0,4,2,4,4.5h-7.8
	c0,0.1,0,0.3,0,0.4c0,2.1,1.8,4.4,5.6,4.4c0.3,0,0.7,0,1.1-0.1V85.1z M311.9,79.3h7.1c0-1.5-1.2-3.5-3.5-3.5
	C314,75.8,312.3,76.9,311.9,79.3z"/>
<path fill="#fff" stroke="#fff" stroke-miterlimit="10" class="st1" d="M339.7,78v-0.8h0.5V78h0.9v0.5h-0.9v6.5c-0.4,0-0.8,0.1-1.1,0.1c-2.8,0-5-1.4-5-3.5c0-1.5,1.1-2.8,2.8-3.3
	c-1.2-0.5-1.9-1.5-1.9-2.8c0-1.9,1.6-3.1,3.6-3.1c0.2,0,0.4,0,0.6,0l0,0.5c-0.2,0-0.4,0-0.6,0c-1.7,0-3.1,1-3.1,2.6
	c0,1.4,1.2,2.5,3,2.5H339.7z M338.6,78.6c-2.4,0-4,1.4-4,3c0,1.9,1.9,3,4.4,3c0.2,0,0.4,0,0.6,0v-6H338.6z"/>
<path fill="#fff" stroke="#fff" stroke-miterlimit="10" class="st1" d="M356.2,69v6.3c0.3,0,0.6,0,0.8,0c4.1,0,6.1,2.4,6.1,4.9c0,2.5-2,4.9-6.1,4.9c-0.4,0-0.9,0-1.4-0.1V69H356.2z
	 M362.6,80.2c0-2.2-1.9-4.4-5.6-4.4c-0.3,0-0.5,0-0.8,0v8.7c0.3,0,0.6,0,0.8,0C360.8,84.6,362.6,82.4,362.6,80.2z"/>
<path fill="#fff" stroke="#fff" stroke-miterlimit="10" class="st1" d="M382.5,75.3c2.8,0,5,2.3,5,5s-2.3,5-5,5c-2.8,0-5-2.3-5-5S379.8,75.3,382.5,75.3z M382.5,84.7
	c2.5,0,4.5-2,4.5-4.5s-2-4.5-4.5-4.5c-2.5,0-4.5,2-4.5,4.5S380.1,84.7,382.5,84.7z"/>
<path fill="#fff" stroke="#fff" stroke-miterlimit="10" class="st1" d="M402.7,75.4v6.2c0,1.9,1.5,3.1,3.2,3.1s3.2-1.3,3.2-3.1v-6.2h0.5v6.2c0,2.2-1.7,3.7-3.8,3.7s-3.8-1.5-3.8-3.7
	v-6.2H402.7z"/>
<path fill="#fff" stroke="#fff" stroke-miterlimit="10" class="st1" d="M427.9,76h-2.8v5.7c0,2,1.2,2.9,2.8,2.9c0.1,0,0.3,0,0.4,0l0.1,0.5c-0.2,0-0.3,0-0.5,0c-1.8,0-3.3-1.1-3.3-3.4
	V76h-0.8v-0.5h0.8v-3.1h0.5v3.1h2.8V76z"/>
<path fill="#fff" stroke="#fff" stroke-miterlimit="10" class="st1" d="M442.3,72.5h0.9v0.9h-0.9V72.5z M443.1,75.4v9.7h-0.5v-9.7H443.1z"/>
<path fill="#fff" stroke="#fff" stroke-miterlimit="10" class="st1" d="M464.8,90.4v-5.2c-0.3,0-0.6,0-0.8,0c-4.1,0-6.1-2.4-6.1-4.9c0-2.5,2-4.9,6.1-4.9c0.4,0,0.9,0,1.4,0.1v15H464.8
	z M458.4,80.2c0,2.2,1.9,4.4,5.6,4.4c0.3,0,0.5,0,0.8,0v-8.7c-0.3,0-0.6,0-0.8,0C460.2,75.9,458.4,78,458.4,80.2z"/>
<path fill="#fff" stroke="#fff" stroke-miterlimit="10" class="st1" d="M480.7,75.4v6.2c0,1.9,1.5,3.1,3.2,3.1s3.2-1.3,3.2-3.1v-6.2h0.5v6.2c0,2.2-1.7,3.7-3.8,3.7s-3.8-1.5-3.8-3.7
	v-6.2H480.7z"/>
<path fill="#fff" stroke="#fff" stroke-miterlimit="10" class="st1" d="M509.5,85.1c-0.4,0-0.8,0.1-1.2,0.1c-4,0-6.1-2.4-6.1-4.9c0-3.7,2.6-5,4.3-5c2.6,0,4,2,4,4.5h-7.8
	c0,0.1,0,0.3,0,0.4c0,2.1,1.8,4.4,5.6,4.4c0.3,0,0.7,0,1.1-0.1V85.1z M502.9,79.3h7.1c0-1.5-1.2-3.5-3.5-3.5
	C505,75.8,503.3,76.9,502.9,79.3z"/>
</svg>
